<svg xmlns="http://www.w3.org/2000/svg" width="1200" height="630" viewBox="0 0 1200 630" role="img" aria-labelledby="title desc">
  <title id="title">Phishtopia</title>
  <desc id="desc">An underwater technology scene with a glowing fish and the words Home of the Improbable.</desc>
  <defs>
    <linearGradient id="bg" x1="0" y1="0" x2="1" y2="1">
      <stop offset="0" stop-color="#03141c"/>
      <stop offset="0.55" stop-color="#075d70"/>
      <stop offset="1" stop-color="#0aa8b8"/>
    </linearGradient>
    <radialGradient id="glow" cx="68%" cy="43%" r="42%">
      <stop offset="0" stop-color="#80f6ff" stop-opacity=".48"/>
      <stop offset="1" stop-color="#80f6ff" stop-opacity="0"/>
    </radialGradient>
    <filter id="shadow" x="-30%" y="-30%" width="160%" height="160%">
      <feDropShadow dx="0" dy="14" stdDeviation="18" flood-color="#001016" flood-opacity=".55"/>
    </filter>
  </defs>
  <rect width="1200" height="630" fill="url(#bg)"/>
  <rect width="1200" height="630" fill="url(#glow)"/>
  <g opacity=".18" stroke="#9af7ff" stroke-width="2">
    <path d="M0 510H1200M0 560H1200M0 610H1200"/>
    <path d="M70 0V630M170 0V630M270 0V630M370 0V630M470 0V630M570 0V630M670 0V630M770 0V630M870 0V630M970 0V630M1070 0V630M1170 0V630"/>
  </g>
  <g fill="none" stroke="#bffbff" stroke-width="5" opacity=".65">
    <circle cx="1030" cy="120" r="18"/>
    <circle cx="1080" cy="190" r="10"/>
    <circle cx="955" cy="245" r="13"/>
    <circle cx="1115" cy="315" r="22"/>
  </g>
  <g filter="url(#shadow)" transform="translate(760 192)">
    <path d="M0 120C72 32 205 24 300 93C327 113 350 140 362 170C330 205 298 229 260 245C164 286 63 250 0 176C-23 193-51 207-89 218C-72 173-72 127-89 82C-49 94-22 108 0 120Z" fill="#ff9d45" stroke="#ffd1a1" stroke-width="8"/>
    <path d="M160 71C205 30 256 37 294 73C248 77 209 93 177 120Z" fill="#ffbf79" opacity=".9"/>
    <circle cx="266" cy="133" r="18" fill="#03141c"/>
    <circle cx="272" cy="127" r="5" fill="#d8ffff"/>
    <path d="M18 143C81 119 159 116 224 142" fill="none" stroke="#ffe0bd" stroke-width="7" stroke-linecap="round" opacity=".75"/>
  </g>
  <g fill="#efffff">
    <text x="78" y="196" font-family="Arial, Helvetica, sans-serif" font-size="84" font-weight="800" letter-spacing="-2">PHISHTOPIA</text>
    <text x="82" y="264" font-family="Arial, Helvetica, sans-serif" font-size="34" font-weight="700" fill="#8cecf4" letter-spacing="6">HOME OF THE IMPROBABLE</text>
    <text x="82" y="374" font-family="Arial, Helvetica, sans-serif" font-size="30" fill="#d5f7fa">Useful tools, strange experiments,</text>
    <text x="82" y="414" font-family="Arial, Helvetica, sans-serif" font-size="30" fill="#d5f7fa">and whatever comes next.</text>
  </g>
  <rect x="78" y="486" width="300" height="58" rx="29" fill="#001b24" fill-opacity=".72" stroke="#73eaf2" stroke-opacity=".55"/>
  <text x="228" y="524" text-anchor="middle" font-family="Arial, Helvetica, sans-serif" font-size="24" font-weight="700" fill="#d9ffff">phishtopia.com</text>
</svg>
